<?xml version="1.0" encoding="utf-8"?>
<!-- Generator: Adobe Illustrator 25.2.0, SVG Export Plug-In . SVG Version: 6.00 Build 0)  -->
<svg version="1.1" id="Layer_1" xmlns="http://www.w3.org/2000/svg" xmlns:xlink="http://www.w3.org/1999/xlink" x="0px" y="0px"
	 viewBox="0 0 1017 331" enable-background="new 0 0 1017 331" xml:space="preserve">
<g>
	<path d="M483.01,317.59c-0.35,0.23-1.95,1.06-4.77,2.48s-6.54,2.94-11.14,4.6c-4.6,1.65-9.84,3.15-15.74,4.51
		c-5.9,1.35-12.02,2.03-18.39,2.03c-10.37,0-19.69-1.83-27.93-5.48c-8.25-3.66-15.23-8.81-20.95-15.47
		c-5.72-6.66-10.11-14.67-13.17-24.04c-3.07-9.37-4.6-19.77-4.6-31.21c0-10.96,1.35-23.01,4.07-36.16
		c2.71-13.14,6.25-26.67,10.61-40.58c4.36-13.91,9.28-27.82,14.76-41.73c5.48-13.91,11.02-27.14,16.62-39.69
		c5.6-12.55,10.93-24.04,16-34.48c5.07-10.43,9.43-19.12,13.08-26.08c-6.6,7.54-14.14,16.24-22.63,26.08
		c-8.49,9.84-17.53,20.63-27.14,32.35c-9.61,11.73-19.6,24.22-29.97,37.48c-10.37,13.26-20.83,27.05-31.38,41.37
		c-10.55,14.32-21.01,29-31.38,44.02c-10.37,15.03-20.27,30.14-29.7,45.35l-8.49-2.83c1.77-19.21,4.69-38.28,8.75-57.19
		c4.07-18.92,8.66-37.13,13.79-54.63c5.13-17.5,10.55-33.95,16.27-49.33c5.72-15.38,11.17-29.14,16.35-41.28
		c-7.9,10.85-15.77,22.6-23.6,35.27c-7.84,12.67-15.77,25.7-23.78,39.07c-8.02,13.38-16.27,26.82-24.75,40.31
		c-8.49,13.5-17.33,26.46-26.52,38.9c-9.19,12.44-18.89,24.04-29.08,34.83c-10.2,10.78-21.04,20.16-32.53,28.11
		s-23.75,14.23-36.77,18.83c-13.03,4.6-26.96,6.9-41.81,6.9c-11.43,0-21.81-1.71-31.12-5.13c-9.31-3.42-17.3-8.11-23.96-14.06
		c-6.66-5.95-11.78-12.94-15.38-20.95c-3.59-8.01-5.39-16.68-5.39-25.99c0-9.07,1.44-17.3,4.33-24.66
		c2.89-7.36,6.75-13.91,11.58-19.62c4.83-5.72,10.46-10.67,16.88-14.85c6.42-4.18,13.17-7.63,20.24-10.34
		c7.07-2.71,14.23-4.71,21.48-6.01c7.25-1.3,14.17-1.94,20.77-1.94c13.67,0,26.75,1.62,39.25,4.86
		c12.49,3.24,24.51,8.99,36.07,17.24l-6.19,6.9c-0.12-0.12-1.65-1.21-4.6-3.27c-2.95-2.06-7.19-4.33-12.73-6.81
		c-5.54-2.48-12.41-4.71-20.6-6.72c-8.19-2-17.53-3.01-28.02-3.01c-10.14,0-19.95,1.36-29.44,4.07
		c-9.49,2.71-17.86,6.81-25.11,12.29c-7.25,5.48-13.06,12.38-17.42,20.69c-4.36,8.31-6.54,18.06-6.54,29.26
		c0,8.02,1.56,15.44,4.69,22.28c3.12,6.83,7.45,12.76,13,17.77c5.54,5.01,12.2,8.93,19.98,11.76c7.78,2.83,16.38,4.24,25.81,4.24
		c14.14,0,27.7-3.01,40.66-9.02c12.96-6.01,25.46-14.14,37.48-24.4s23.6-22.22,34.74-35.89c11.14-13.67,21.86-28.11,32.18-43.32
		c10.31-15.2,20.3-30.82,29.97-46.85c9.66-16.03,19.03-31.5,28.11-46.41c9.07-14.91,17.91-28.88,26.52-41.9
		c8.6-13.02,17.03-24.25,25.28-33.68l7.96,4.77c-5.19,15.8-9.67,29.67-13.44,41.64c-3.77,11.96-7.04,22.48-9.81,31.56
		c-2.77,9.08-5.13,16.91-7.07,23.51c-1.94,6.6-3.62,12.49-5.04,17.68c-1.41,5.19-2.68,9.87-3.8,14.06
		c-1.12,4.19-2.24,8.34-3.36,12.46c-1.12,4.13-2.39,8.49-3.8,13.08c-1.41,4.6-3.12,9.93-5.13,16c-2.01,6.07-4.36,13.08-7.07,21.04
		c-2.71,7.96-6.01,17.36-9.9,28.2c9.9-14.97,20.07-29.7,30.5-44.2c10.43-14.5,20.83-28.52,31.21-42.08
		c10.37-13.55,20.54-26.52,30.5-38.9c9.96-12.38,19.39-23.87,28.29-34.48c8.9-10.61,17.09-20.24,24.58-28.91
		c7.48-8.66,13.99-16.06,19.54-22.19c5.54-6.13,9.87-10.9,13-14.32c3.12-3.42,4.74-5.19,4.86-5.3l7.43,5.48
		c-6.96,17.21-13.85,34.45-20.69,51.71c-6.84,17.27-13.41,34.09-19.71,50.48c-6.31,16.38-12.17,32.18-17.59,47.38
		c-5.42,15.21-10.14,29.44-14.14,42.7c-4.01,13.26-7.16,25.34-9.46,36.24c-2.3,10.9-3.45,20.24-3.45,28.02
		c0,9.19,1.09,17.5,3.27,24.93c2.18,7.43,5.33,13.73,9.46,18.92c4.12,5.19,9.22,9.16,15.29,11.93c6.07,2.77,12.93,4.15,20.6,4.15
		c5.77,0,11.4-0.65,16.88-1.94c5.48-1.3,10.34-2.71,14.59-4.24c4.24-1.53,7.66-2.95,10.25-4.24c2.59-1.3,3.95-1.94,4.07-1.94
		L483.01,317.59z"/>
	<path d="M593.51,139.02c-1.53,3.07-3.69,7.07-6.45,12.02c-2.77,4.95-5.75,10.4-8.93,16.35c-3.18,5.95-6.4,12.17-9.64,18.65
		c-3.24,6.48-6.19,12.82-8.84,19.01c-2.65,6.19-4.83,12.02-6.54,17.5c-1.71,5.48-2.56,10.11-2.56,13.88c0,3.77,0.73,6.22,2.21,7.34
		c1.47,1.12,3.39,1.68,5.75,1.68c3.42,0,6.92-1,10.52-3.01c3.59-2,7.13-4.6,10.61-7.78c3.48-3.18,6.86-6.78,10.17-10.78
		c3.3-4.01,6.39-8.04,9.28-12.11c2.89-4.07,5.51-7.96,7.87-11.67c2.36-3.71,4.36-6.86,6.01-9.46l6.36,4.95
		c-2.01,3.77-4.36,7.84-7.07,12.2c-2.71,4.36-5.69,8.75-8.93,13.17c-3.24,4.42-6.75,8.69-10.52,12.82
		c-3.77,4.13-7.75,7.78-11.93,10.96c-4.19,3.18-8.57,5.72-13.17,7.6c-4.6,1.89-9.31,2.83-14.14,2.83c-7.07,0-12.26-2.12-15.56-6.36
		c-3.3-4.24-4.95-9.72-4.95-16.44c0-0.47,0.03-1.5,0.09-3.09c0.06-1.59,0.2-2.86,0.44-3.8c-5.9,7.43-11.52,13.56-16.88,18.39
		c-5.36,4.83-10.55,8.66-15.56,11.49c-5.01,2.83-9.84,4.8-14.5,5.92c-4.66,1.12-9.11,1.68-13.35,1.68c-4.48,0-8.69-0.74-12.64-2.21
		c-3.95-1.48-7.43-3.62-10.43-6.45c-3.01-2.83-5.36-6.3-7.07-10.43c-1.71-4.12-2.56-8.9-2.56-14.32c0-6.72,1.5-14.41,4.51-23.07
		c3.01-8.66,8.34-18,16-28.02c6.48-8.6,13.23-15.85,20.24-21.75c7.01-5.89,13.91-10.64,20.69-14.23c6.78-3.59,13.23-6.16,19.36-7.69
		c6.13-1.53,11.61-2.3,16.44-2.3c10.84,0,19.03,1.8,24.58,5.39c5.54,3.6,8.9,9.1,10.08,16.53c2.36-2.94,4.83-5.89,7.43-8.84
		c2.59-2.95,5.24-5.95,7.96-9.02L593.51,139.02z M539.23,206.21c1.53-2.48,3.42-5.63,5.66-9.46c2.24-3.83,4.6-7.78,7.07-11.85
		c2.48-4.07,4.89-7.98,7.25-11.76c2.36-3.77,4.42-6.95,6.19-9.55c0-1.06-0.15-2.77-0.44-5.13c-0.3-2.36-1.09-4.74-2.39-7.16
		c-1.3-2.41-3.36-4.51-6.19-6.28c-2.83-1.77-6.78-2.65-11.85-2.65c-3.65,0-7.75,0.56-12.29,1.68c-4.54,1.12-9.37,3.01-14.5,5.66
		c-5.13,2.65-10.4,6.16-15.82,10.52c-5.42,4.36-10.85,9.78-16.27,16.27c-8.13,9.78-14.41,19.6-18.83,29.44
		c-4.42,9.84-6.63,18.71-6.63,26.61c0,6.72,1.53,11.91,4.6,15.56c3.06,3.65,7.43,5.48,13.08,5.48c6.48,0,12.55-1.44,18.21-4.33
		c5.66-2.89,10.96-6.63,15.91-11.23s9.66-9.69,14.14-15.29C530.63,217.14,534.99,211.63,539.23,206.21z"/>
	<path fill="#318B6C" d="M810.09,24.28c-1.3,1.89-3.42,5.01-6.37,9.37c-2.95,4.36-6.37,9.55-10.25,15.56
		c-3.89,6.01-8.11,12.67-12.64,19.98c-4.54,7.31-9.08,14.85-13.61,22.63c-4.54,7.78-8.96,15.65-13.26,23.6
		c-4.3,7.96-8.1,15.59-11.4,22.9c-5.19,11.32-9.46,21.42-12.82,30.32c-3.36,8.9-6.01,16.83-7.96,23.78c-1.94,6.96-3.3,13-4.07,18.12
		c-0.77,5.13-1.15,9.52-1.15,13.17c0,6.72,1.03,11.38,3.09,13.97c2.06,2.59,4.86,3.89,8.4,3.89c3.65,0,7.16-0.94,10.52-2.83
		c3.36-1.88,6.6-4.3,9.72-7.25c3.12-2.94,6.07-6.3,8.84-10.08c2.77-3.77,5.36-7.54,7.78-11.32c2.41-3.77,4.62-7.36,6.63-10.78
		c2-3.42,3.77-6.3,5.3-8.66l6.37,4.95c-1.3,2.12-2.92,4.92-4.86,8.4c-1.94,3.48-4.15,7.28-6.63,11.4c-2.48,4.13-5.3,8.28-8.49,12.46
		c-3.18,4.19-6.69,7.99-10.52,11.4c-3.83,3.42-8.08,6.22-12.73,8.4c-4.66,2.18-9.7,3.27-15.12,3.27c-2.59,0-5.33-0.35-8.22-1.06
		c-2.89-0.71-5.57-1.94-8.04-3.71s-4.66-4.21-6.54-7.34c-1.89-3.12-3.12-7.1-3.71-11.93c-8.84,9.55-17.44,16.77-25.81,21.66
		c-8.37,4.89-16.27,7.34-23.69,7.34c-3.77,0-7.93-0.65-12.46-1.94c-4.54-1.3-8.81-3.54-12.82-6.72c-4.01-3.18-7.37-7.4-10.08-12.64
		c-2.71-5.24-4.07-11.76-4.07-19.54c0-8.72,1.36-17.03,4.07-24.93c2.71-7.9,6.36-15.23,10.96-22.01c4.6-6.78,9.87-12.91,15.82-18.39
		c5.95-5.48,12.17-10.14,18.65-13.97c6.48-3.83,12.99-6.81,19.54-8.93c6.54-2.12,12.7-3.18,18.48-3.18c7.66,0,13.67,0.94,18.03,2.83
		c4.36,1.89,7.66,3.77,9.9,5.66c1.65-3.3,3.89-7.51,6.72-12.64c2.83-5.13,6.13-10.84,9.9-17.15c3.77-6.3,7.96-13.02,12.55-20.16
		c4.6-7.13,9.49-14.32,14.67-21.57c5.19-7.25,10.63-14.41,16.35-21.48c5.72-7.07,11.52-13.67,17.42-19.8L810.09,24.28z
		 M698.18,213.63c0.59-8.72,2.62-19.01,6.1-30.85c3.47-11.85,8.81-25.49,16-40.93c-1.65-2.48-3.98-4.39-6.98-5.75
		c-3-1.35-6.39-2.03-10.17-2.03c-5.78,0-11.64,1.18-17.59,3.54c-5.95,2.36-11.67,5.54-17.15,9.55c-5.48,4.01-10.64,8.75-15.47,14.23
		c-4.83,5.48-9.05,11.35-12.64,17.59c-3.6,6.25-6.43,12.76-8.49,19.54c-2.06,6.78-3.09,13.47-3.09,20.07
		c0,8.84,1.86,15.74,5.57,20.69c3.71,4.95,8.69,7.43,14.94,7.43c2.94,0,6.19-0.59,9.72-1.77c3.54-1.18,7.4-3.09,11.58-5.75
		c4.18-2.65,8.57-6.07,13.17-10.25C688.28,224.74,693.11,219.64,698.18,213.63z"/>
	<path fill="#318B6C" d="M888.41,195.6c-1.77,2.59-3.86,6.1-6.28,10.52c-2.42,4.42-5.22,9.19-8.4,14.32
		c-3.18,5.13-6.69,10.34-10.52,15.65c-3.83,5.3-8.02,10.08-12.55,14.32c-4.54,4.24-9.46,7.72-14.76,10.43
		c-5.3,2.71-10.96,4.07-16.97,4.07c-3.3,0-6.43-0.5-9.37-1.5c-2.95-1-5.54-2.56-7.78-4.69c-2.24-2.12-4.01-4.74-5.3-7.87
		c-1.3-3.12-1.95-6.81-1.95-11.05c0-5.77,1.15-11.82,3.45-18.12c2.3-6.3,4.98-12.4,8.04-18.3c3.06-5.89,6.13-11.28,9.19-16.18
		c3.06-4.89,5.3-8.81,6.72-11.76c1.41-2.94,2.12-5.48,2.12-7.6c0-1.53-0.5-2.89-1.5-4.07c-1-1.18-2.24-2.33-3.71-3.45
		c-1.48-1.12-3.01-2.3-4.6-3.54c-1.59-1.24-2.92-2.74-3.98-4.51c-2.95,4.72-5.95,9.49-9.02,14.32c-2.71,4.13-5.66,8.75-8.84,13.88
		c-3.18,5.13-6.25,10.17-9.19,15.12l-6.37-4.95l37.84-59.23l5.13,2.65c-0.24,0.71-0.62,1.83-1.15,3.36c-0.53,1.53-0.8,3.18-0.8,4.95
		c0,1.3,0.21,2.56,0.62,3.8c0.41,1.24,1.27,2.39,2.56,3.45c4.71,4.24,8.42,7.51,11.14,9.81c2.71,2.3,4.69,4.13,5.92,5.48
		c1.24,1.36,2,2.48,2.3,3.36c0.29,0.88,0.44,2.03,0.44,3.45c0,1.41-0.24,3.12-0.71,5.13c-0.47,2.01-1.27,4.42-2.39,7.25
		c-1.12,2.83-2.65,6.16-4.6,9.99c-1.94,3.83-4.39,8.28-7.34,13.35c-1.77,3.07-3.51,6.16-5.22,9.28c-1.71,3.12-3.24,6.28-4.6,9.46
		c-1.36,3.18-2.45,6.36-3.27,9.55c-0.83,3.18-1.24,6.25-1.24,9.19c0,2.24,0.32,4.04,0.97,5.39c0.65,1.36,1.5,2.39,2.56,3.09
		c1.06,0.71,2.21,1.18,3.45,1.41c1.24,0.24,2.44,0.35,3.62,0.35c3.89,0,7.75-1.15,11.58-3.45c3.83-2.3,7.6-5.27,11.31-8.93
		c3.71-3.65,7.31-7.81,10.79-12.46c3.47-4.65,6.81-9.4,9.99-14.23c3.18-4.83,6.13-9.46,8.84-13.88c2.71-4.42,5.13-8.28,7.25-11.58
		L888.41,195.6z"/>
	<path d="M895.31,216.28c-0.24,1.41-0.41,2.83-0.53,4.24c-0.12,1.41-0.18,2.83-0.18,4.24c0,4.24,0.62,8.28,1.86,12.11
		c1.24,3.83,3.06,7.19,5.48,10.08c2.41,2.89,5.42,5.16,9.02,6.81c3.59,1.65,7.69,2.48,12.29,2.48c15.44,0,30.35-5.24,44.73-15.74
		c14.38-10.49,28.7-27.11,42.96-49.86l6.01,5.3c-7.78,12.97-15.68,23.9-23.69,32.8c-8.02,8.9-16,16.12-23.96,21.66
		c-7.96,5.54-15.77,9.55-23.43,12.02c-7.66,2.48-14.97,3.71-21.92,3.71c-5.07,0-10.43-0.71-16.09-2.12
		c-5.66-1.41-10.87-3.77-15.65-7.07s-8.72-7.72-11.85-13.26c-3.12-5.54-4.68-12.43-4.68-20.69c0-8.84,1.5-17.35,4.51-25.55
		c3.01-8.19,6.92-15.82,11.76-22.9c4.83-7.07,10.37-13.53,16.62-19.36c6.24-5.83,12.58-10.81,19.01-14.94
		c6.42-4.12,12.7-7.34,18.83-9.64c6.13-2.3,11.55-3.45,16.27-3.45c3.06,0,6.19,0.47,9.37,1.41c3.18,0.94,6.04,2.42,8.57,4.42
		c2.53,2.01,4.6,4.66,6.19,7.96c1.59,3.3,2.39,7.25,2.39,11.85c0,6.25-1.44,12.11-4.33,17.59c-2.89,5.48-6.75,10.55-11.58,15.2
		c-4.83,4.66-10.43,8.84-16.79,12.55s-13.03,6.87-19.98,9.46c-6.96,2.59-13.97,4.66-21.04,6.19
		C908.39,215.34,901.67,216.17,895.31,216.28z M896.72,208.68c7.89-0.82,15.32-2.48,22.28-4.95c6.95-2.48,13.32-5.51,19.1-9.1
		c5.77-3.59,10.93-7.51,15.47-11.76c4.54-4.24,8.34-8.54,11.4-12.91c3.06-4.36,5.42-8.54,7.07-12.55c1.65-4.01,2.47-7.6,2.47-10.78
		s-0.86-5.72-2.56-7.6c-1.71-1.88-3.74-2.83-6.1-2.83c-5.19,0-11.02,1.86-17.5,5.57c-6.48,3.71-12.97,8.84-19.45,15.38
		c-6.48,6.54-12.58,14.23-18.3,23.07C904.88,189.06,900.26,198.55,896.72,208.68z"/>
</g>
</svg>
